<svg xmlns="http://www.w3.org/2000/svg" xmlns:xlink="http://www.w3.org/1999/xlink" viewBox="0,0,256,256" width="48px" height="48px"><g fill-opacity="0" fill="#dddddd" fill-rule="nonzero" stroke="none" stroke-width="1" stroke-linecap="butt" stroke-linejoin="miter" stroke-miterlimit="10" stroke-dasharray="" stroke-dashoffset="0" font-family="none" font-weight="none" font-size="none" text-anchor="none" style="mix-blend-mode: normal"><path d="M0,256v-256h256v256z" id="bgRectangle"></path></g><g fill="none" fill-rule="nonzero" stroke="none" stroke-width="1" stroke-linecap="butt" stroke-linejoin="miter" stroke-miterlimit="10" stroke-dasharray="" stroke-dashoffset="0" font-family="none" font-weight="none" font-size="none" text-anchor="none" style="mix-blend-mode: normal"><g transform="scale(5.33333,5.33333)"><path d="M9.068,26c0.323,3.018 2.001,6.973 4.831,10.412c2.448,2.974 5.823,5.512 10.098,6.588h0.003v-17z" fill="#dd2c00"></path><path d="M24.001,5.006c4.938,0.081 9.877,1.017 14.817,2.807l0.172,0.063v17.124c-0.009,3.1 -1.747,7.582 -4.897,11.412c-2.447,2.975 -5.82,5.512 -10.093,6.588h-0.003c-4.273,-1.076 -7.647,-3.613 -10.093,-6.588c-3.151,-3.83 -4.889,-8.312 -4.898,-11.412v-17.124l0.172,-0.063c4.94,-1.79 9.879,-2.726 14.817,-2.807h0.006M24.009,4.006h-0.008h-0.005c-5.042,0.082 -10.136,1.047 -15.158,2.867l-0.174,0.063l-0.658,0.24v0.7v17.124c0.011,3.547 2.022,8.275 5.125,12.047c2.884,3.505 6.556,5.899 10.622,6.922l0.12,0.03h0.124h0.124l0.123,-0.03c4.065,-1.023 7.738,-3.417 10.622,-6.922c3.103,-3.773 5.114,-8.5 5.125,-12.044v-17.127v-0.7l-0.658,-0.24l-0.172,-0.063c-5.024,-1.821 -10.119,-2.785 -15.143,-2.867h-0.009z" fill="#263238"></path><path d="M24,43c4.275,-1.076 7.65,-3.613 10.098,-6.588c3.151,-3.83 4.89,-8.312 4.899,-11.412h-14.997z" fill="#ffd740"></path><path d="M26.114,33.969c0.224,-0.172 0.724,-0.335 1.008,-0.452c-0.008,-0.416 -0.183,-0.807 -0.079,-1.149c0.19,-0.624 0.618,-0.898 1.044,-0.945c0.027,0.009 0.051,0.06 0.025,0.075c-0.239,0.22 -0.327,0.526 -0.376,0.872c-0.019,0.134 -0.038,0.53 0.085,0.813c0.249,-0.123 0.855,-0.33 1.061,-0.382c0.021,-0.414 0.088,-0.82 0.209,-1.117c0.24,-0.585 0.767,-1.045 1.299,-0.781c0.028,0.014 0.05,0.069 0.021,0.079c-0.331,0.119 -0.544,0.458 -0.733,0.841c-0.056,0.113 -0.243,0.737 -0.027,0.866c0.004,0.002 0.008,0.005 0.011,0.007c0.381,-0.075 0.444,-0.042 0.854,-0.076c0.071,-0.407 0.248,-0.746 0.408,-1.017c0.243,-0.454 0.852,-0.816 1.41,-0.49c0.03,0.018 0.048,0.076 0.015,0.083c-0.381,0.082 -0.629,0.327 -0.771,0.542c-0.072,0.104 -0.42,0.59 -0.244,0.781c0.02,-0.001 0.04,-0.001 0.06,-0.002c0.328,-0.01 0.564,0.054 0.919,0.118c0.101,-0.24 0.193,-0.276 0.299,-0.406c0.377,-0.455 1.034,-0.615 1.251,-0.181c0.021,0.024 0.026,0.084 -0.002,0.082c-0.2,0.03 -0.527,0.127 -0.692,0.328c-0.043,0.043 -0.149,0.157 -0.248,0.371c0.444,0.337 0.704,0.605 0.822,1.068c0.021,0.084 0.069,0.542 -0.098,0.308c-0.725,-0.891 -1.702,-1.085 -3.178,-0.949c-1.574,0.146 -2.296,0.369 -3.878,1.203c0.872,0.765 -0.438,1.513 -0.651,0.395c-0.767,1.139 -1.576,-0.296 -0.539,-0.505c-1.004,-0.999 0.43,-1.462 0.715,-0.38zM28.799,29.037c0.566,-0.186 1.186,-0.379 1.502,-0.447c0.059,-0.91 0.927,-2.034 1.958,-1.641c0.038,0.014 0.066,0.069 0.028,0.079c-0.265,0.072 -1.108,0.869 -0.819,1.371c0.211,0.011 0.789,0.001 0.972,0.01c0.228,-1.004 1.105,-1.703 2.12,-1.249c0.039,0.018 0.063,0.076 0.021,0.083c-0.398,0.065 -1.3,0.689 -1.197,1.212c0.186,0.012 0.683,0.183 1.011,0.354c0.118,-0.241 0.25,-0.341 0.376,-0.47c0.44,-0.455 1.341,-0.487 1.594,-0.052c0.025,0.024 0.031,0.084 -0.002,0.083c-0.389,-0.013 -0.729,0.041 -1.052,0.328c-0.049,0.043 -0.16,0.2 -0.275,0.414c0.315,0.166 0.67,0.497 0.738,0.811c0.051,0.153 0.085,0.286 0.052,0.445c-0.009,0.042 -0.095,0.001 -0.123,-0.03c-0.832,-0.891 -2.67,-1.446 -4.451,-1.227c-1.191,0.146 -2.349,0.46 -3.32,0.883c0.325,-0.286 0.616,-0.607 0.867,-0.957zM26.174,31.065c-0.082,0.073 -0.159,0.147 -0.231,0.223c0.429,0.565 -0.244,1.03 -0.443,0.453c-0.504,0.532 -0.903,-0.086 -0.573,-0.345c0.434,-0.066 0.851,-0.178 1.247,-0.331zM25.884,38.718c0.119,-0.128 0.406,-0.375 0.551,-0.488c-0.443,-0.694 -0.195,-1.569 0.233,-1.631c0.022,0.009 0.047,0.057 0.028,0.073c-0.116,0.165 -0.177,1.071 0.166,1.274c0.171,-0.119 0.506,-0.345 0.653,-0.394c-0.251,-0.828 0.19,-1.939 1.028,-1.759c0.023,0.013 0.047,0.067 0.027,0.077c-0.693,0.345 -0.695,1.382 -0.511,1.505c0.275,-0.073 0.587,-0.193 0.889,-0.226c0.133,-1.102 1.129,-1.6 1.623,-1.316c0.024,0.016 0.045,0.072 0.021,0.079c-0.278,-0.161 -1.316,0.891 -0.976,1.2c0.244,-0.009 0.52,0.091 0.793,0.153c0.117,-0.608 0.993,-1.12 1.356,-0.732c0.02,0.023 0.031,0.08 0.01,0.079c-0.333,0.065 -0.767,0.369 -0.834,0.931c0.701,0.322 0.625,0.995 0.507,0.821c-0.656,-0.861 -2.066,-0.718 -3.134,-0.497c-0.622,0.128 -1.5,0.713 -1.87,1.125c1.127,0.524 0.1,1.49 -0.371,0.394c-0.78,1.344 -1.541,0.122 -0.636,-0.247c-1.086,-0.829 0.07,-1.391 0.447,-0.421z" fill="#263238"></path><path d="M24.005,5.046v-0.04c-4.94,0.081 -9.881,1.017 -14.824,2.807l-0.172,0.063c0,0 -0.021,14.313 0,17.124v0h-0.003c0.001,0.317 0.032,0.657 0.069,1h14.925v-1h0.009v-19.986z" fill="#ffd740"></path><path d="M11.542,15.794c0.256,-0.159 0.514,-0.306 0.776,-0.442c-0.038,-0.401 -0.083,-1.026 0.028,-1.365c0.202,-0.619 0.783,-1.132 1.463,-1.018c0.037,0.006 0.072,0.053 0.038,0.07c-0.384,0.198 -0.687,0.491 -0.857,0.905c-0.051,0.122 -0.24,0.946 0.04,1.014c0.03,0.007 0.059,0.012 0.089,0.014c0.499,-0.212 1.014,-0.391 1.548,-0.54c-0.002,-0.401 0.015,-0.962 0.153,-1.26c0.27,-0.585 0.929,-1.014 1.639,-0.808c0.038,0.011 0.071,0.062 0.034,0.075c-0.423,0.144 -0.77,0.392 -0.989,0.779c-0.065,0.114 -0.338,0.904 -0.049,1.01c0.005,0.002 0.011,0.004 0.016,0.005c0.49,-0.107 0.997,-0.193 1.528,-0.262c0.063,-0.399 0.171,-0.922 0.36,-1.197c0.392,-0.571 1.187,-0.956 1.936,-0.692c0.04,0.014 0.068,0.069 0.026,0.078c-0.49,0.113 -0.913,0.338 -1.215,0.713c-0.086,0.106 -0.487,0.834 -0.246,1.002c0.026,-0.003 0.051,-0.005 0.078,-0.008c0.426,-0.039 0.907,-0.051 1.373,-0.022c0.114,-0.241 0.245,-0.472 0.376,-0.606c0.458,-0.472 1.478,-0.636 1.79,-0.236c0.03,0.021 0.04,0.078 0.003,0.079c-0.434,0.017 -0.883,0.08 -1.221,0.381c-0.051,0.046 -0.236,0.231 -0.349,0.446c0.704,0.112 1.291,0.351 1.476,0.787c0.061,0.145 0.104,0.27 0.083,0.425c-0.005,0.041 -0.094,0.008 -0.124,-0.02c-0.892,-0.802 -2.296,-0.892 -4.195,-0.567c-1.912,0.327 -3.523,0.884 -5.233,1.681c0.692,0.762 -0.395,1.351 -0.748,0.547c-0.828,0.975 -1.605,-0.439 -0.457,-0.608c-0.654,-1.004 0.656,-1.039 0.83,-0.36zM11.773,23.538c0.228,-0.17 0.519,-0.312 0.754,-0.459c-0.244,-0.377 -0.38,-0.925 -0.292,-1.27c0.161,-0.628 0.556,-0.915 1.047,-0.889c0.034,0.005 0.067,0.05 0.037,0.069c-0.344,0.215 -0.399,0.504 -0.496,0.939c-0.052,0.234 0.077,0.628 0.254,0.762c0.442,-0.232 0.428,-0.201 0.892,-0.364c-0.137,-0.408 -0.101,-0.944 0.062,-1.286c0.261,-0.55 0.696,-0.747 1.143,-0.658c0.034,0.009 0.064,0.057 0.033,0.07c-0.341,0.145 -1.041,0.686 -0.587,1.717c0.425,-0.148 0.449,-0.171 0.986,-0.285c0.042,-0.402 0.053,-0.885 0.215,-1.169c0.336,-0.589 1.105,-0.856 1.462,-0.717c0.037,0.012 0.065,0.066 0.027,0.077c-0.203,0.134 -0.462,0.232 -0.724,0.62c-0.141,0.209 -0.402,0.688 -0.327,1.008c0.388,-0.056 0.89,-0.077 1.317,-0.067c0.095,-0.246 0.277,-0.55 0.391,-0.69c0.078,-0.096 0.179,-0.163 0.294,-0.208v1.451c-0.732,-0.035 -1.538,0.045 -2.307,0.224c-1.738,0.406 -2.188,0.713 -3.735,1.526c0.929,0.571 0.029,1.44 -0.543,0.579c-1.01,1.129 -1.656,-0.327 -0.611,-0.543c-0.784,-0.936 0.511,-1.439 0.708,-0.437zM11.321,19.681c0.26,-0.153 0.618,-0.27 0.883,-0.401c-0.029,-0.402 -0.084,-0.768 0.036,-1.105c0.217,-0.614 0.543,-0.926 1.076,-0.866c0.036,0.007 0.07,0.055 0.037,0.071c-0.388,0.19 -0.288,0.452 -0.468,0.862c-0.054,0.121 -0.189,0.611 0.088,0.685c0.03,0.008 0.059,0.013 0.089,0.017c0.496,-0.201 0.322,-0.18 0.838,-0.311c0.007,-0.384 0.036,-0.921 0.175,-1.203c0.271,-0.555 0.792,-0.834 1.273,-0.715c0.036,0.011 0.114,0.108 0.079,0.12c-0.381,0.12 -1.038,0.878 -0.767,1.478c0.336,-0.055 0.554,-0.159 1.147,-0.235c0.073,-0.398 0.217,-0.8 0.412,-1.071c0.405,-0.563 1.041,-0.67 1.421,-0.507c0.04,0.015 0.09,0.117 0.048,0.126c-0.492,0.102 -0.509,0.058 -0.821,0.426c-0.168,0.198 -0.514,0.725 -0.264,0.967c0.426,-0.03 0.715,-0.078 1.179,-0.039c0.12,-0.238 0.208,-0.56 0.342,-0.692c0.876,-0.288 0.876,-0.288 1.528,-0.197c0.03,0.022 0.039,0.079 0.002,0.079c-0.434,0.007 -0.595,0.131 -0.94,0.425c-0.034,0.03 -0.118,0.129 -0.205,0.253h-0.249v0.799c-0.719,-0.062 -1.488,-0.041 -2.222,0.067c-1.919,0.284 -2.625,0.711 -4.209,1.469c0.674,0.777 -0.426,1.317 -0.76,0.506c-0.851,0.956 -1.594,-0.475 -0.443,-0.618c-0.628,-1.021 0.514,-1.286 0.695,-0.39zM24,33h-12.443c0.664,1.159 1.438,2.313 2.343,3.412c0.165,0.2 0.344,0.392 0.517,0.588h9.583zM22,26h-13c0.003,1.172 0.256,2.543 0.737,4h12.263z" fill="#263238"></path><path d="M38.997,7.876l-0.172,-0.063c-4.942,-1.79 -9.883,-2.726 -14.824,-2.807l-0.001,0.008v19.986h14.997v-0.001c0.021,-2.81 0,-17.123 0,-17.123z" fill="#dd2c00"></path><path d="M30,17h9v4h-9zM24,9h15v4h-15z" fill="#263238"></path><path d="M38.657,13.271c-4.867,-1.763 -9.798,-2.697 -14.656,-2.777c-4.858,0.08 -9.789,1.015 -14.655,2.777l-0.843,0.306v-6.056l0.5,-0.184c4.976,-1.801 10.018,-2.755 14.987,-2.837c4.991,0.082 10.033,1.036 15.008,2.837l0.502,0.184v6.056z" fill="#ffd740"></path><path d="M24.004,5c4.94,0.081 9.881,1.017 14.824,2.807l0.172,0.063v4.994l-0.172,-0.063c-4.942,-1.79 -9.883,-2.726 -14.824,-2.807l-0.005,0.04v-0.04c-4.94,0.081 -9.881,1.017 -14.824,2.807l-0.172,0.063v-4.994l0.172,-0.063c4.942,-1.79 9.883,-2.726 14.824,-2.807h0.005M24.012,4h-0.008h-0.005c-5.043,0.083 -10.14,1.047 -15.164,2.867l-0.175,0.063l-0.657,0.24v0.7v4.994v1.429l1.342,-0.489l0.172,-0.063c4.809,-1.742 9.683,-2.666 14.484,-2.747c4.801,0.08 9.674,1.005 14.486,2.747l0.171,0.062l1.342,0.49v-1.429v-4.994v-0.7l-0.658,-0.24l-0.172,-0.062c-5.026,-1.821 -10.123,-2.785 -15.15,-2.868h-0.008z" fill="#263238"></path><path d="M11.197,8.003c0.359,-0.113 0.718,-0.226 1.082,-0.328c0.134,-0.037 0.269,-0.072 0.406,-0.101c0.144,-0.028 0.298,-0.042 0.439,0.003l0.048,0.023c0.049,0.032 0.078,0.064 0.103,0.115c0.037,0.09 0.051,0.183 0.062,0.279c0.02,0.207 0.02,0.416 0.004,0.624c-0.015,0.164 -0.034,0.332 -0.103,0.483c-0.032,0.062 -0.068,0.115 -0.114,0.168c-0.037,0.039 -0.074,0.073 -0.117,0.106c-0.086,0.065 -0.177,0.115 -0.276,0.16c-0.234,0.105 -0.48,0.178 -0.724,0.255c-0.427,0.137 -0.85,0.285 -1.273,0.432l-0.001,0.76c-0.212,0.083 -0.425,0.167 -0.637,0.251v-2.876c0.367,-0.119 0.733,-0.238 1.101,-0.354zM10.734,9.71c0.426,-0.143 0.851,-0.286 1.279,-0.423c0.13,-0.042 0.263,-0.08 0.39,-0.132l0.097,-0.054l0.044,-0.032l0.039,-0.036l0.034,-0.04l0.029,-0.044l0.034,-0.079c0.013,-0.05 0.021,-0.097 0.026,-0.148c0.009,-0.125 0.011,-0.252 -0.024,-0.373l-0.03,-0.065l-0.032,-0.04l-0.04,-0.035l-0.048,-0.023l-0.05,-0.014l-0.05,-0.005l-0.051,0.001c-0.129,0.015 -0.256,0.053 -0.379,0.089c-0.425,0.126 -0.846,0.267 -1.268,0.403l0,1.05zM16.11,6.696c0.285,-0.052 0.571,-0.099 0.86,-0.124c0.095,-0.008 0.187,-0.012 0.282,-0.006c0.046,0.006 0.088,0.013 0.132,0.026c0.037,0.013 0.067,0.027 0.101,0.047c0.03,0.021 0.053,0.041 0.077,0.067c0.023,0.031 0.04,0.059 0.057,0.093c0.02,0.049 0.034,0.096 0.045,0.147c0.033,0.175 0.041,0.352 0.05,0.529c0.009,0.201 0.01,0.401 0.004,0.602c-0.003,0.084 -0.007,0.168 -0.011,0.253c-0.01,0.154 -0.019,0.311 -0.055,0.462c-0.009,0.037 -0.021,0.073 -0.034,0.109c-0.025,0.057 -0.053,0.105 -0.09,0.155l-0.095,0.095l-0.121,0.08c-0.049,0.025 -0.098,0.045 -0.149,0.064c-0.207,0.065 -0.422,0.108 -0.633,0.151c-0.434,0.089 -0.869,0.172 -1.304,0.255c-0.211,0.04 -0.421,0.08 -0.632,0.109c-0.059,0.007 -0.117,0.012 -0.175,0.013l-0.132,-0.013c-0.036,-0.01 -0.065,-0.02 -0.098,-0.035l-0.072,-0.055l-0.055,-0.081l-0.086,-0.429l-0.002,-1.154c0.009,-0.136 0.025,-0.27 0.056,-0.403l0.035,-0.114c0.026,-0.061 0.054,-0.113 0.092,-0.168l0.097,-0.107l0.079,-0.064c0.086,-0.058 0.173,-0.102 0.272,-0.139l0.475,-0.141c0.34,-0.087 0.684,-0.159 1.03,-0.224zM15.779,7.288l-0.683,0.161c-0.055,0.017 -0.108,0.035 -0.16,0.058l-0.051,0.027l-0.048,0.033l-0.044,0.036l-0.039,0.041l-0.036,0.046l-0.03,0.048c-0.021,0.045 -0.037,0.086 -0.049,0.134c-0.036,0.164 -0.039,0.334 -0.042,0.502c-0.002,0.176 -0.005,0.357 0.031,0.531l0.022,0.068l0.034,0.064l0.048,0.055l0.059,0.043l0.067,0.03l0.072,0.018l0.076,0.006c0.047,-0.002 0.091,-0.005 0.138,-0.011c0.264,-0.035 0.528,-0.09 0.789,-0.142c0.217,-0.043 0.434,-0.085 0.649,-0.141c0.047,-0.012 0.09,-0.027 0.136,-0.043l0.071,-0.034l0.064,-0.041l0.057,-0.049l0.049,-0.056l0.041,-0.061l0.031,-0.068l0.02,-0.07c0.036,-0.189 0.032,-0.382 0.03,-0.573c-0.002,-0.1 -0.004,-0.201 -0.014,-0.301l-0.012,-0.08c-0.013,-0.056 -0.027,-0.105 -0.05,-0.158l-0.025,-0.045l-0.031,-0.041l-0.038,-0.037l-0.044,-0.03l-0.047,-0.022l-0.05,-0.012l-0.11,-0.012c-0.113,-0.001 -0.224,0.009 -0.336,0.026c-0.182,0.029 -0.363,0.065 -0.545,0.1zM20.143,6.214c0.33,-0.025 0.66,-0.046 0.992,-0.056c0.071,-0.002 0.143,-0.003 0.214,-0.002c0.079,0.003 0.146,0.019 0.217,0.053c0.026,0.013 0.049,0.028 0.073,0.045c0.053,0.042 0.086,0.084 0.119,0.142c0.022,0.045 0.038,0.088 0.05,0.136c0.02,0.108 0.022,0.221 0.024,0.33c0.002,0.137 0.002,0.274 -0.01,0.41c-0.005,0.054 -0.011,0.107 -0.026,0.159l-0.021,0.055c-0.02,0.038 -0.039,0.068 -0.066,0.101l-0.06,0.052c-0.028,0.018 -0.056,0.034 -0.087,0.047c-0.045,0.017 -0.091,0.028 -0.138,0.038l-0.361,0.073l0.356,0.198c0.048,0.033 0.089,0.067 0.129,0.109l0.043,0.051c0.056,0.078 0.095,0.156 0.127,0.246c0.05,0.153 0.076,0.312 0.081,0.472c-0.21,0.009 -0.421,0.018 -0.63,0.029c-0.01,-0.113 -0.032,-0.222 -0.063,-0.331l-0.048,-0.123l-0.032,-0.058l-0.037,-0.056l-0.044,-0.049l-0.055,-0.043l-0.064,-0.034c-0.039,-0.011 -0.076,-0.021 -0.117,-0.027c-0.084,-0.01 -0.169,-0.003 -0.253,0.003c-0.407,0.03 -0.814,0.062 -1.22,0.101l-0.153,0.014v0.765c-0.213,0.023 -0.426,0.046 -0.638,0.07v-2.758c0.565,-0.063 1.131,-0.119 1.698,-0.162zM19.083,7.795c0.423,-0.039 0.847,-0.075 1.271,-0.107c0.146,-0.011 0.292,-0.022 0.437,-0.037c0.042,-0.005 0.082,-0.013 0.124,-0.023l0.049,-0.016l0.047,-0.022l0.043,-0.027l0.038,-0.034l0.032,-0.04l0.024,-0.043c0.013,-0.034 0.022,-0.065 0.03,-0.101c0.018,-0.117 0.019,-0.235 0.008,-0.353c-0.007,-0.045 -0.015,-0.084 -0.031,-0.128l-0.023,-0.042l-0.031,-0.04l-0.038,-0.034l-0.043,-0.026l-0.046,-0.02l-0.048,-0.012c-0.042,-0.007 -0.081,-0.011 -0.123,-0.011c-0.208,0.002 -0.418,0.02 -0.625,0.035c-0.365,0.027 -0.73,0.06 -1.095,0.092v0.989zM23.573,8.433c0.24,0.002 0.481,0.002 0.722,0.002c0.165,0 0.333,0.006 0.497,-0.011c0.036,-0.005 0.071,-0.011 0.106,-0.018c0.034,-0.01 0.062,-0.02 0.093,-0.036l0.037,-0.028l0.031,-0.035l0.024,-0.039l0.016,-0.041l0.019,-0.084l0.004,-0.126l-0.022,-0.14l-0.011,-0.035l-0.019,-0.037l-0.028,-0.035l-0.039,-0.032l-0.042,-0.023l-0.09,-0.031l-0.162,-0.021l-0.196,-0.003l-1.331,-0.005c-0.13,-0.001 -0.262,-0.002 -0.39,-0.023c-0.034,-0.008 -0.067,-0.015 -0.099,-0.03l-0.04,-0.022l-0.036,-0.026l-0.033,-0.03l-0.03,-0.034l-0.026,-0.038c-0.028,-0.052 -0.049,-0.102 -0.063,-0.16c-0.031,-0.144 -0.033,-0.295 -0.032,-0.442c0.005,-0.179 0.014,-0.367 0.092,-0.532c0.017,-0.03 0.034,-0.055 0.057,-0.08c0.089,-0.081 0.215,-0.112 0.332,-0.136c0.124,-0.024 0.25,-0.027 0.376,-0.031c0.288,-0.006 0.578,-0.005 0.867,-0.006c0.479,0.005 0.959,0.012 1.438,0.023v0.417c-0.634,-0.012 -1.269,-0.024 -1.904,-0.02c-0.144,0.002 -0.289,0.003 -0.432,0.017c-0.032,0.004 -0.061,0.01 -0.092,0.017l-0.052,0.024l-0.046,0.04l-0.03,0.047l-0.018,0.048l-0.012,0.087c-0.002,0.072 -0.002,0.143 0.004,0.215l0.009,0.048l0.018,0.053l0.037,0.054l0.062,0.043l0.065,0.012c0.666,0.011 1.333,0.029 1.998,0.053l0.082,0.01c0.103,0.025 0.207,0.071 0.286,0.142c0.036,0.037 0.064,0.075 0.086,0.121c0.06,0.145 0.073,0.311 0.078,0.466c0.002,0.18 -0.007,0.362 -0.058,0.536c-0.009,0.025 -0.018,0.05 -0.028,0.075l-0.034,0.057c-0.027,0.035 -0.054,0.062 -0.089,0.091c-0.062,0.042 -0.126,0.071 -0.2,0.089c-0.107,0.021 -0.22,0.027 -0.33,0.034c-0.327,0.017 -0.653,0.016 -0.979,0.014c-0.513,0.003 -1.025,0.01 -1.538,0.019c-0.002,-0.148 -0.002,-0.296 -0.002,-0.443c0.346,-0.009 0.691,-0.016 1.037,-0.019h0.06zM27.956,9.012c-0.269,-0.023 -0.538,-0.045 -0.804,-0.083c-0.117,-0.018 -0.234,-0.039 -0.346,-0.075c-0.059,-0.02 -0.112,-0.045 -0.164,-0.075c-0.037,-0.023 -0.067,-0.047 -0.098,-0.076c-0.03,-0.031 -0.053,-0.059 -0.076,-0.094c-0.021,-0.038 -0.037,-0.074 -0.051,-0.114c-0.04,-0.145 -0.049,-0.298 -0.056,-0.447c-0.012,-0.37 -0.015,-0.74 0.001,-1.11l0.005,-0.092c0.012,-0.17 0.027,-0.339 0.132,-0.483c0.034,-0.042 0.071,-0.073 0.119,-0.101c0.131,-0.068 0.288,-0.089 0.434,-0.1c0.155,-0.01 0.31,-0.009 0.466,-0.006c0.31,0.008 0.621,0.024 0.93,0.05c0.445,0.039 0.891,0.08 1.335,0.127v0.487c-0.589,-0.056 -1.18,-0.106 -1.769,-0.144c-0.191,-0.012 -0.385,-0.025 -0.576,-0.014l-0.094,0.012l-0.064,0.019l-0.059,0.028l-0.055,0.038l-0.047,0.047l-0.035,0.054l-0.028,0.06c-0.012,0.039 -0.022,0.076 -0.031,0.116c-0.031,0.187 -0.032,0.379 -0.031,0.567c0.002,0.156 0.004,0.314 0.032,0.468c0.008,0.039 0.019,0.074 0.031,0.112l0.03,0.058l0.039,0.053l0.047,0.046l0.054,0.038l0.059,0.031l0.063,0.023c0.052,0.012 0.102,0.023 0.155,0.03c0.175,0.024 0.353,0.039 0.531,0.054c0.6,0.047 1.199,0.107 1.8,0.172c0.001,0.15 0.003,0.299 0.005,0.448v0.047c-0.375,-0.039 -0.751,-0.077 -1.128,-0.109c-0.252,-0.023 -0.505,-0.041 -0.756,-0.062zM32,7.771c0.491,0.085 0.98,0.18 1.469,0.276v-1.098c0.228,0.047 0.455,0.098 0.683,0.149v2.834c-0.228,-0.054 -0.455,-0.107 -0.683,-0.159v-1.117c-0.39,-0.079 -0.781,-0.156 -1.172,-0.227c-0.364,-0.067 -0.728,-0.129 -1.091,-0.189v1.103c-0.228,-0.035 -0.455,-0.07 -0.683,-0.102v-2.778c0.228,0.029 0.456,0.058 0.683,0.091v1.085c0.263,0.043 0.529,0.087 0.794,0.132zM37.195,7.956c0.241,0.078 0.483,0.157 0.724,0.238v0.466c-0.704,-0.237 -1.414,-0.46 -2.127,-0.669l-0.236,-0.071v0.706c0.521,0.152 1.04,0.308 1.558,0.474c0.228,0.073 0.456,0.149 0.684,0.225v0.42c-0.666,-0.221 -1.336,-0.429 -2.01,-0.626l-0.233,-0.068v0.755c0.501,0.147 1.001,0.298 1.498,0.455c0.294,0.093 0.588,0.188 0.881,0.285v0.484c-0.957,-0.311 -1.921,-0.601 -2.891,-0.871l-0.112,-0.031v-2.84c0.761,0.205 1.515,0.429 2.264,0.668z" fill="#263238"></path><path d="M24,31.5c-3.584,0 -6.5,-2.916 -6.5,-6.5v-7.5h13v7.5c0,3.584 -2.916,6.5 -6.5,6.5z" fill="#ffd740"></path><path d="M30,18v7c0,3.314 -2.686,6 -6,6v0c-3.314,0 -6,-2.686 -6,-6v-7h12M31,17h-1h-12h-1v1v7c0,3.86 3.14,7 7,7c3.86,0 7,-3.14 7,-7v-7v-1z" fill="#263238"></path><path d="M21.004,26.822c0.058,0.011 0.188,-0.16 0.234,-0.253c0.046,-0.093 0.036,-0.255 0.026,-0.278c-0.011,-0.024 -0.156,0.025 -0.234,0.025c-0.078,0 -0.128,-0.014 -0.233,-0.025c-0.106,-0.012 -0.091,-0.249 -0.104,-0.38c-0.031,-0.328 -0.046,-0.658 -0.026,-0.987c0.006,-0.091 0.025,-0.206 0.104,-0.253c0.104,-0.062 0.244,-0.045 0.363,-0.025c0.241,0.04 0.46,0.164 0.7,0.202c0.137,0.022 0.281,0.008 0.416,-0.025c0.112,-0.027 0.2,-0.117 0.311,-0.151c0.058,-0.018 0.128,-0.027 0.182,0c0.187,0.095 0.317,0.291 0.519,0.354c0.247,0.077 0.518,0.041 0.778,0.051c0.207,0.007 0.418,-0.029 0.622,0c0.095,0.014 0.241,0.034 0.26,0.126c0.027,0.133 -0.191,0.248 -0.156,0.38c0.054,0.197 0.291,0.3 0.39,0.48c0.036,0.067 0.035,0.16 0,0.228c-0.034,0.064 -0.138,0.069 -0.182,0.126c-0.063,0.082 -0.069,0.194 -0.129,0.278c-0.063,0.088 -0.147,0.161 -0.234,0.228c-0.19,0.145 -0.382,0.294 -0.596,0.405c-0.069,0.036 -0.2,-0.044 -0.233,0.025c-0.061,0.126 -0.12,0.289 -0.182,0.38c-0.062,0.09 -0.138,0.095 -0.182,0.151c-0.044,0.056 -0.109,0.159 -0.078,0.177c0.032,0.018 0.314,0.013 0.415,0c0.102,-0.013 0.165,-0.023 0.196,-0.048c0.032,-0.025 -0.022,-0.11 -0.04,-0.281c-0.017,-0.172 0.472,-0.244 0.7,-0.38c0.256,-0.151 0.495,-0.331 0.752,-0.48c0.107,-0.062 0.246,-0.07 0.337,-0.152c0.045,-0.041 0.026,-0.117 0.026,-0.177c0,-0.144 -0.033,-0.286 -0.026,-0.43c0.003,-0.07 0.001,-0.153 0.052,-0.202c0.043,-0.042 0.128,-0.055 0.181,-0.026c0.086,0.048 0.102,0.172 0.181,0.228c0.116,0.082 0.262,0.114 0.39,0.177c0.114,0.055 0.317,0.054 0.337,0.177c0.035,0.211 -0.114,0.414 -0.208,0.607c-0.047,0.098 -0.147,0.162 -0.207,0.253c-0.036,0.054 -0.033,0.131 -0.078,0.177c-0.114,0.117 -0.271,0.189 -0.389,0.303c-0.084,0.081 -0.161,0.173 -0.207,0.278c-0.026,0.059 -0.038,0.122 -0.078,0.178c-0.04,0.055 -0.119,0.072 -0.155,0.151c-0.037,0.079 -0.148,0.32 -0.052,0.303c0.095,-0.015 0.601,-0.104 0.622,-0.151c0.021,-0.048 -0.027,-0.17 -0.052,-0.329c-0.025,-0.159 0.332,-0.274 0.519,-0.379c0.102,-0.058 0.244,-0.03 0.337,-0.101c0.055,-0.044 0.025,-0.138 0.051,-0.202c0.043,-0.105 0.08,-0.218 0.156,-0.303c0.1,-0.113 0.277,-0.153 0.363,-0.278c0.095,-0.139 0.185,-0.315 0.155,-0.481c-0.022,-0.129 -0.198,-0.179 -0.285,-0.278c-0.069,-0.078 -0.151,-0.154 -0.181,-0.253c-0.043,-0.138 -0.075,-0.294 -0.026,-0.43c0.061,-0.17 0.229,-0.283 0.337,-0.43c0.091,-0.123 0.225,-0.231 0.26,-0.38c0.039,-0.174 -0.038,-0.354 -0.052,-0.531c-0.003,-0.034 -0.026,-0.079 0,-0.101c0.123,-0.104 0.253,-0.233 0.415,-0.253c0.146,-0.018 0.269,0.131 0.416,0.151c0.154,0.022 0.32,0.027 0.467,-0.025c0.049,-0.018 0.063,-0.116 0.026,-0.152c-0.096,-0.094 -0.323,-0.051 -0.363,-0.177c-0.034,-0.102 0.181,-0.133 0.233,-0.228c0.072,-0.132 0.139,-0.281 0.13,-0.43c-0.003,-0.051 -0.112,-0.052 -0.156,-0.025c-0.069,0.043 -0.067,0.151 -0.13,0.203c-0.048,0.039 -0.119,0.055 -0.181,0.051c-0.066,-0.005 -0.141,-0.026 -0.182,-0.076c-0.038,-0.046 -0.077,-0.144 -0.026,-0.177c0.117,-0.076 0.28,-0.04 0.416,-0.076c0.056,-0.015 0.133,-0.024 0.155,-0.076c0.038,-0.085 0.037,-0.192 0,-0.278c-0.016,-0.04 -0.087,-0.036 -0.129,-0.026c-0.061,0.016 -0.094,0.101 -0.156,0.101c-0.085,0 -0.179,-0.038 -0.234,-0.101c-0.045,-0.052 -0.055,-0.141 -0.026,-0.202c0.047,-0.097 0.188,-0.131 0.234,-0.228c0.063,-0.132 0.109,-0.287 0.077,-0.43c-0.013,-0.06 -0.126,-0.08 -0.181,-0.051c-0.068,0.036 -0.064,0.138 -0.104,0.203c-0.055,0.088 -0.085,0.212 -0.182,0.253c-0.063,0.027 -0.165,-0.035 -0.181,-0.101c-0.026,-0.11 0.037,-0.224 0.078,-0.329c0.046,-0.116 0.103,-0.231 0.182,-0.329c0.078,-0.099 0.221,-0.144 0.285,-0.253c0.048,-0.081 0.08,-0.202 0.026,-0.278c-0.04,-0.055 -0.149,-0.011 -0.208,0.025c-0.049,0.03 -0.025,0.128 -0.077,0.152c-0.128,0.059 -0.292,0.011 -0.416,0.076c-0.097,0.051 -0.149,0.161 -0.208,0.253c-0.109,0.169 -0.115,0.473 -0.156,0.506c-0.046,0.038 -0.145,0.023 -0.181,-0.025c-0.051,-0.069 0.033,-0.19 -0.026,-0.253c-0.046,-0.05 -0.154,-0.043 -0.207,0c-0.064,0.051 -0.078,0.148 -0.078,0.228c0,0.129 0.017,0.265 0.078,0.38c0.098,0.187 0.264,0.334 0.39,0.506c0.126,0.174 0.286,0.332 0.362,0.532c0.049,0.126 0.057,0.281 0,0.405c-0.049,0.11 -0.162,0.237 -0.284,0.228c-0.168,-0.013 -0.274,-0.191 -0.415,-0.278c-0.135,-0.082 -0.258,-0.203 -0.416,-0.228c-0.342,-0.054 -0.692,0 -1.038,0c-0.311,0 -0.625,0.041 -0.934,0c-0.15,-0.02 -0.306,-0.075 -0.415,-0.177c-0.103,-0.097 -0.173,-0.24 -0.182,-0.38c-0.01,-0.182 0.052,-0.365 0.13,-0.531c0.055,-0.12 0.143,-0.237 0.26,-0.304c0.089,-0.051 0.232,-0.088 0.329,-0.051c0.097,0.037 0.375,0.423 0.441,0.402c0.065,-0.021 0.021,-0.349 -0.018,-0.452c-0.059,-0.153 -0.23,-0.25 -0.286,-0.405c-0.016,-0.045 0.055,-0.104 0.105,-0.101c0.096,0.007 0.188,0.062 0.26,0.126c0.038,0.035 0.233,0.297 0.285,0.284c0.051,-0.013 -0.023,-0.395 -0.078,-0.511c-0.074,-0.157 -0.309,-0.275 -0.329,-0.313c-0.016,-0.033 0.005,-0.063 0.043,-0.066c0.089,-0.007 0.174,0.045 0.26,0.076c0.08,0.029 0.193,0.122 0.234,0.101c0.04,-0.02 -0.005,-0.149 -0.052,-0.202c-0.159,-0.182 -0.384,-0.301 -0.545,-0.481c-0.084,-0.094 -0.174,-0.204 -0.182,-0.329c-0.004,-0.077 0.083,-0.145 0.157,-0.177c0.128,-0.057 0.303,-0.085 0.422,-0.156c0.046,-0.026 0.015,-0.052 -0.035,-0.072c-0.187,-0.076 -0.394,-0.101 -0.596,-0.101c-0.117,0 -0.225,0.066 -0.337,0.101c-0.078,0.024 -0.151,0.076 -0.233,0.076c-0.141,0 -0.312,0.018 -0.416,-0.076c-0.064,-0.058 0.012,-0.177 0.052,-0.253c0.04,-0.074 0.119,-0.121 0.182,-0.177c0.04,-0.036 0.178,-0.085 0.129,-0.101c-0.048,-0.016 -0.281,-0.007 -0.415,0.025c-0.112,0.027 -0.227,0.074 -0.311,0.152c-0.079,0.072 -0.063,0.225 -0.156,0.278c-0.177,0.101 -0.267,0.065 -0.452,0.151c-0.049,0.023 -0.142,0.145 -0.196,0.152c-0.241,0.032 -0.702,-0.088 -0.726,-0.051c-0.024,0.037 0.37,0.259 0.441,0.455c0.032,0.088 -0.19,-0.036 -0.285,-0.025c-0.142,0.015 -0.288,0.039 -0.416,0.101c-0.12,0.059 -0.216,0.16 -0.311,0.253c-0.087,0.085 -0.136,0.207 -0.234,0.278c-0.049,0.036 -0.139,-0.015 -0.172,0.034c-0.039,0.057 -0.053,0.19 0.016,0.194l0.415,0.025c0.078,0.005 -0.069,0.164 -0.026,0.228c0.033,0.049 0.126,0.024 0.182,0c0.066,-0.03 0.094,-0.112 0.156,-0.152c0.071,-0.046 0.148,-0.105 0.233,-0.101c0.105,0.005 0.239,0.036 0.286,0.126c0.044,0.086 -0.061,0.184 -0.078,0.278c-0.018,0.1 0.05,0.234 -0.026,0.303c-0.222,0.204 -0.295,0.032 -0.622,0.43c-0.261,0.318 -0.145,0.145 -0.233,0.557c-0.017,0.081 -0.035,0.179 -0.104,0.228c-0.071,0.049 -0.184,0.067 -0.26,0.025c-0.143,-0.079 -0.242,-0.223 -0.337,-0.354c-0.054,-0.074 -0.024,-0.206 -0.104,-0.253c-0.103,-0.061 -0.247,-0.063 -0.363,-0.025c-0.088,0.029 -0.131,0.128 -0.182,0.203c-0.114,0.163 -0.201,0.341 -0.312,0.506c-0.089,0.131 -0.209,0.241 -0.285,0.38c-0.038,0.069 -0.021,0.157 -0.052,0.228c-0.087,0.194 -0.16,0.394 -0.26,0.582c-0.04,0.075 -0.139,0.12 -0.156,0.203c-0.02,0.092 0.015,0.271 0.052,0.278c0.038,0.007 0.188,-0.106 0.286,-0.152c0.101,-0.047 0.298,-0.095 0.311,-0.126c0.013,-0.031 -0.103,-0.135 -0.156,-0.203c-0.102,-0.133 0.123,-0.31 0.207,-0.455c0.03,-0.052 0.103,-0.073 0.13,-0.126c0.061,-0.119 0.069,-0.26 0.129,-0.38c0.078,-0.153 0.159,-0.312 0.286,-0.43c0.058,-0.053 0.168,-0.095 0.233,-0.051c0.114,0.079 0.14,0.236 0.208,0.355c0.053,0.092 0.127,0.176 0.156,0.278c0.024,0.089 -0.06,0.206 0,0.278c0.075,0.091 0.217,0.115 0.337,0.126l0.26,0.026l0.026,0.354c0.01,0.135 -0.279,0.024 -0.416,0.051c-0.123,0.024 -0.241,0.075 -0.363,0.101c-0.119,0.025 -0.34,-0.066 -0.363,0.051c-0.099,0.497 0.024,1.012 0.052,1.518c0.007,0.136 -0.077,0.352 0.052,0.405l0.256,0.104c0.044,0.1 0.078,0.23 0.133,0.3c0.055,0.067 0.124,0.087 0.182,0.098zM24,10h1v8h-1zM23,31h1v12h-1zM30,25h9v1h-9z" fill="#263238"></path></g></g></svg>